<?xml version="1.0" encoding="utf-8"?>
<!-- Generator: Adobe Illustrator 21.0.2, SVG Export Plug-In . SVG Version: 6.00 Build 0)  -->
<svg version="1.1" id="Layer_1" xmlns="http://www.w3.org/2000/svg" xmlns:xlink="http://www.w3.org/1999/xlink" x="0px" y="0px"
	 viewBox="0 0 346.2 351.1" style="enable-background:new 0 0 346.2 351.1;" xml:space="preserve">
<style type="text/css">
	.st0{fill:#ED7A9E;}
</style>
<path class="st0" d="M342.7,203.9L342.7,203.9c-5.4-13.7-16.5-24.3-30.4-29c-59.2-19.9-104.5-70.1-117.5-132.2
	c-2.3-11-8.2-20.8-16.7-28.1l-3.2-2.7C162.3,1.2,145.1-2.7,129.2,1.9C57.7,22.2,4.5,86.2,0.3,163.2
	c-5.9,108.1,79.8,193.6,187.9,187.6c69.6-3.9,128.4-47.8,154.1-109C347.3,229.7,347.5,216.1,342.7,203.9z M94,62.1
	c11.6,0,21,9.4,21,21c0,11.6-9.4,21-21,21s-21-9.4-21-21C73,71.5,82.4,62.1,94,62.1z M33.9,161.1C33.9,145,47,132,63,132
	s29.1,13,29.1,29.1c0,16.1-13,29.1-29.1,29.1S33.9,177.1,33.9,161.1z M94,295.7c-21.9,0-39.6-17.7-39.6-39.6s17.7-39.6,39.6-39.6
	s39.6,17.7,39.6,39.6S115.9,295.7,94,295.7z M194,313.1c-16,0-29-13-29-29c0-16,13-29,29-29s29,13,29,29
	C223,300.1,210.1,313.1,194,313.1z M276,256.1c-11.6,0-21-9.4-21-21c0-11.6,9.4-21,21-21s21,9.4,21,21
	C297,246.7,287.6,256.1,276,256.1z"/>
</svg>
