<?xml version="1.0" encoding="utf-8"?>
<!-- Generator: Adobe Illustrator 21.0.2, SVG Export Plug-In . SVG Version: 6.00 Build 0)  -->
<svg version="1.1" id="Layer_1" xmlns="http://www.w3.org/2000/svg" xmlns:xlink="http://www.w3.org/1999/xlink" x="0px" y="0px"
	 viewBox="0 0 355 306" style="enable-background:new 0 0 355 306;" xml:space="preserve">
<style type="text/css">
	.st0{fill:#ED7A9E;}
</style>
<g>
	<g>
		<path class="st0" d="M257,200v22.3c0,10.3-8.4,18.7-18.7,18.7H117.7c-10.3,0-18.7-8.4-18.7-18.7V200H0v106h355V200H257z"/>
	</g>
	<g>
		<path class="st0" d="M99,176v-22.3c0-10.3,8.4-18.7,18.7-18.7h120.7c10.3,0,18.7,8.4,18.7,18.7V176h98v-53.4
			c0-29.1-23.6-52.6-52.6-52.6H252V23.7C252,10.6,241.4,0,228.3,0H126.7C113.6,0,103,10.6,103,23.7V70H52.6C23.6,70,0,93.6,0,122.6
			V176H99z M127,35.5c0-6.4,5.1-11.5,11.5-11.5h78c6.4,0,11.5,5.1,11.5,11.5v23c0,6.4-5.1,11.5-11.5,11.5h-78
			c-6.4,0-11.5-5.1-11.5-11.5V35.5z"/>
	</g>
	<g>
		<path class="st0" d="M141.9,151.3c-10.3,0-18.7,8.4-18.7,18.7v36.1c0,10.3,8.4,18.7,18.7,18.7h72.2c10.3,0,18.7-8.4,18.7-18.7
			v-36.1c0-10.3-8.4-18.7-18.7-18.7H141.9z"/>
	</g>
</g>
</svg>
